<svg xmlns="http://www.w3.org/2000/svg" viewBox="0 0 900 620" role="img"><defs><linearGradient id="a" x1="0" x2="1" y1="0" y2="1"><stop stop-color="#e8eee8"/><stop offset=".55" stop-color="#fffaf0"/><stop offset="1" stop-color="#c96f2c"/></linearGradient></defs><rect width="900" height="620" rx="42" fill="url(#a)"/><path d="M88 438c120-76 220-76 300 0s184 76 312 0" fill="none" stroke="#1f6f68" stroke-width="26" stroke-linecap="round" opacity=".62"/><path d="M154 214h592v82H154z" fill="#243a40" opacity=".92"/><path d="M220 296v148m130-148v98m130-98v150m130-150v96" stroke="#243a40" stroke-width="24" stroke-linecap="round"/><g fill="#c5d86d"><circle cx="210" cy="178" r="28"/><circle cx="286" cy="148" r="18"/><circle cx="350" cy="178" r="34"/><circle cx="598" cy="152" r="24"/><circle cx="682" cy="184" r="36"/></g><g fill="#c96f2c"><circle cx="294" cy="380" r="22"/><circle cx="428" cy="430" r="30"/><circle cx="574" cy="386" r="24"/><circle cx="654" cy="456" r="18"/></g><text x="72" y="88" font-family="Archivo, Arial" font-size="38" font-weight="800" fill="#14201f">Environmental catalysis</text><text x="72" y="132" font-family="Georgia" font-size="24" fill="#5e6b68">oxide catalysts • pollutant degradation • clean conversion</text></svg>