<svg xmlns="http://www.w3.org/2000/svg" viewBox="0 0 900 620" role="img"><defs><linearGradient id="g" x1="0" x2="1"><stop stop-color="#1f6f68"/><stop offset=".55" stop-color="#c5d86d"/><stop offset="1" stop-color="#c96f2c"/></linearGradient><filter id="s"><feDropShadow dx="0" dy="18" stdDeviation="18" flood-opacity=".24"/></filter></defs><rect width="900" height="620" rx="42" fill="#fffaf0"/><path d="M80 500C170 250 286 114 430 92c176-26 310 90 390 330" fill="none" stroke="#d8c7a2" stroke-width="22" stroke-linecap="round"/><g filter="url(#s)"><circle cx="236" cy="262" r="62" fill="#1f6f68"/><circle cx="430" cy="154" r="78" fill="#c5d86d"/><circle cx="612" cy="276" r="64" fill="#c96f2c"/><circle cx="394" cy="386" r="92" fill="url(#g)"/><circle cx="198" cy="448" r="36" fill="#243a40"/><circle cx="686" cy="450" r="48" fill="#7d3518"/></g><g fill="none" stroke="#243a40" stroke-width="10" stroke-linecap="round" opacity=".55"><path d="M290 234 372 180M493 183 566 246M577 309 462 358M330 360 242 425M437 311l-5-78"/></g><text x="72" y="92" font-family="Archivo, Arial" font-size="38" font-weight="800" fill="#14201f">Rare-earth phosphors</text><text x="72" y="136" font-family="Georgia" font-size="24" fill="#5e6b68">luminescence • oxides • functional ceramics</text><text x="640" y="566" font-family="Archivo, Arial" font-size="72" font-weight="800" fill="#14201f" opacity=".16">RE³⁺</text></svg>